PathFileType	4	(X/Y/Z)	C:/Users/beibeiliu/ov580/test_trc/capture2\sequence.26_training_dense_left.trc
DataRate	CameraRate	NumFrames	NumMarkers	Units	OrigDataRate	OrigDataStartFrame	OrigNumFrames
120	120	22	19	mm	120	192	383
Frame#	Time	ThumbCMC			ThumbMCP			ThumbIP			ThumbTip			IndexMCP			IndexPIP			IndexTip			MiddleMCP			MiddlePIP			MiddleTip			RingMCP			RingPIP			RingTip			PinkyMCP			PinkyPIP			PinkyTip			BackHand1			BackHand2			BackHand3	
		X0	Y0	Z0	X1	Y1	Z1	X2	Y2	Z2	X3	Y3	Z3	X4	Y4	Z4	X5	Y5	Z5	X6	Y6	Z6	X7	Y7	Z7	X8	Y8	Z8	X9	Y9	Z9	X10	Y10	Z10	X11	Y11	Z11	X12	Y12	Z12	X13	Y13	Z13	X14	Y14	Z14	X15	Y15	Z15	X16	Y16	Z16	X17	Y17	Z17	X18	Y18	Z18	
191	1.59167	-99.4014	62.4896	37.2058	-78.6812	43.888	31.8087	-63.6438	29.049	16.1901	-55.3782	13.2929	-1.64547	-105.348	43.299	-30.967	-99.7467	31.8878	-53.6989	-99.9136	19.1677	-74.1069	-125.293	29.1623	-35.8909	-122.856	10.3923	-54.8315	-115.919	-13.5141	-75.4039	-137.41	15.9418	-29.9482	-135.201	-7.8776	-43.6176	-126.724	-31.2637	-54.4415	-152.457	4.7664	-10.2497	-148.441	-17.4	-17.2703	-135.54	-42.2941	-25.0307	-157.142	50.6206	8.45384	-161.936	64.6454	33.0654	-133.368	72.5541	21.8563	
192	1.6	-100.466	71.0398	36.454	-78.6714	52.4343	24.7883	-65.9523	37.9649	7.15102	-51.5668	24.5591	-8.56032	-109.518	48.9677	-36.6612	-106.177	36.1469	-54.3019	-99.4816	24.989	-79.4236	-127.918	32.3288	-35.982	-122.407	11.3862	-56.1059	-113.244	-9.59657	-74.8846	-139.522	13.98	-29.2568	-131.025	-7.20197	-44.7652	-114.148	-27.9815	-55.5369	-152.976	1.27951	-8.78916	-142.408	-19.4378	-16.2321	-126.073	-41.9737	-22.0031	-159.259	49.7526	11.2094	-163.161	65.6059	37.1908	-136.905	74.9751	19.373	
193	1.60833	-105.989	78.1997	33.3321	-84.3377	58.738	21.1475	-67.7743	46.1326	0.230533	-53.8886	37.2729	-13.8144	-114.145	51.8406	-40.9487	-107.147	41.0455	-59.8983	-106.916	26.4549	-82.1207	-127.924	30.9586	-42.1904	-121.745	12.816	-58.3519	-109.12	-10.1361	-75.0953	-138.23	11.8698	-31.0783	-124.942	-6.97941	-44.6994	-109.684	-25.7708	-51.7777	-146.687	3.71398	-10.022	-133.019	-20.2718	-16.2711	-107.221	-38.8478	-17.8017	-161.087	44.3146	7.18765	-170.766	59.9527	34.3801	-141.239	76.2493	15.3296	
194	1.61667	-111.893	78.114	26.6548	-86.2473	66.4426	15.3674	-71.8726	55.2445	-0.807196	-61.3657	42.6468	-20.7803	-119.584	52.175	-41.6851	-110.782	41.095	-64.9753	-108.302	31.5243	-82.4283	-129.908	32.5917	-42.4079	-119.466	11.9021	-62.0101	-106.168	-8.69218	-74.4898	-137.492	13.4987	-29.0707	-122.694	-6.35365	-42.68	-96.552	-24.7058	-50.6266	-143.234	0.322734	-9.80252	-120.244	-17.9123	-15.9357	-93.9076	-28.0706	-14.0331	-163.359	42.6439	8.98295	-169.411	56.1253	35.2142	-149.05	74.5738	15.6611	
195	1.625	-117.537	82.5729	27.5033	-92.6263	72.1711	14.0758	-75.2927	63.8645	-8.29974	-63.3508	53.7477	-22.5514	-124.187	55.7372	-41.6692	-115.434	42.1317	-66.797	-110.511	30.763	-85.1586	-132.559	30.891	-44.0832	-122.463	13.2779	-59.6203	-99.169	-6.32295	-77.0618	-135.672	10.6423	-28.4373	-117.967	-6.91572	-41.9208	-92.6592	-19.816	-47.6455	-135.479	-1.04961	-11.0335	-115.034	-12.9328	-15.557	-83.379	-15.757	-11.9393	-164.104	39.9148	6.90258	-170.167	52.1945	31.6051	-153.256	71.2759	9.8476	
196	1.63333	-124.857	83.0526	23.8606	-98.5515	78.7523	11.3111	-80.0612	72.1373	-9.62797	-67.1217	60.7741	-31.7273	-128.172	56.972	-44.5459	-119.568	44.6428	-63.9561	-113.07	30.032	-86.134	-134.302	31.4765	-42.2485	-118.188	11.9043	-62.4766	-94.9433	-0.685433	-80.132	-131.428	10.9554	-31.136	-107.786	-0.975117	-44.8214	-82.5572	-10.7932	-48.1974	-130.317	0.965702	-10.9898	-105.841	-9.08047	-15.3911	-76.8023	-9.70698	-11.2995	-164.482	34.3725	7.83667	-174.279	46.7978	33.5147	-157.586	72.6924	12.2939	
197	1.64167	-129.895	88.4335	20.9247	-104.074	83.3946	8.98666	-87.3291	75.1978	-14.9297	-73.3919	68.7204	-33.1331	-131.544	56.6583	-47.9143	-120.823	44.4635	-68.992	-113.42	34.5952	-86.9095	-134.446	29.2172	-42.8588	-117.571	19.6858	-63.0974	-92.4811	4.11423	-81.1514	-127.888	13.0304	-31.5329	-104.597	3.50377	-43.4793	-77.0036	-5.21433	-45.6393	-125.034	1.80948	-11.4716	-99.7559	-3.9189	-14.3861	-73.6833	-4.06835	-15.5129	-162.706	32.5753	6.49766	-172.622	43.3412	36.7799	-161.333	65.8143	9.8103	
198	1.65	-136.114	90.4395	22.5328	-110.342	84.7706	5.90114	-93.3011	82.6111	-14.2061	-80.3396	73.4251	-35.7791	-135.056	56.0076	-44.8786	-123.698	49.548	-69.4842	-114.468	34.3188	-87.9995	-132.108	27.0409	-46.0323	-113.613	15.6092	-64.3639	-89.7491	8.3485	-80.8664	-125.24	11.4127	-28.9791	-98.0596	3.00849	-41.1951	-72.5035	4.78425	-45.9717	-121.503	2.10135	-8.52586	-95.0765	-0.228866	-12.7531	-69.0012	2.79112	-14.1129	-161.381	26.5886	5.52425	-171.498	39.332	34.528	-166.379	63.7435	12.1661	
199	1.65833	-141.306	84.3339	18.8694	-116.356	86.32	1.43378	-97.8081	85.1457	-21.2893	-86.1406	78.7824	-35.7142	-136.785	51.5271	-48.188	-124.929	47.2875	-68.871	-114.143	38.3689	-90.7866	-131.545	29.3053	-46.8459	-113.266	19.3024	-62.121	-88.7811	10.2958	-77.9203	-120.692	14.415	-29.9704	-94.7823	10.1016	-40.068	-64.4448	11.7016	-42.8043	-110.99	2.43011	-9.62369	-91.1441	6.46474	-12.1037	-63.8764	12.0674	-9.69714	-158.63	27.328	5.35382	-171.634	34.3161	34.5923	-168.093	61.9866	6.36651	
200	1.66667	-146.165	84.6105	16.6358	-121.468	89.0178	-0.195201	-103.364	90.6358	-21.6474	-90.9477	80.9811	-38.0678	-137.455	49.7558	-49.8251	-126.959	49.0385	-69.2133	-114.785	41.1645	-92.4186	-130.786	26.4388	-41.8073	-109.038	22.4334	-66.5297	-83.7063	13.8275	-77.5074	-118.538	17.6291	-28.677	-91.5284	13.1008	-38.1595	-61.3464	21.4933	-42.0868	-110.475	7.02411	-8.30482	-85.3784	12.5816	-10.317	-57.6514	22.9721	-8.5361	-157.728	22.1843	9.8137	-170.395	28.9656	36.0982	-170.83	53.7736	11.9073	
201	1.675	-150.362	84.4623	15.212	-126.94	95.2628	1.06259	-111.562	94.164	-20.1183	-96.5093	88.6335	-38.2657	-138.242	49.1478	-47.2101	-125.554	45.9715	-72.922	-115.217	40.992	-90.7502	-128.847	28.8048	-45.4843	-105.088	23.0927	-65.5028	-81.7889	18.0757	-79.1375	-111.262	14.2411	-29.3705	-83.0794	16.8607	-37.2294	-55.0973	27.5295	-39.5792	-103.832	8.40113	-7.81977	-77.8043	18.9451	-8.65505	-58.0773	33.139	-5.99237	-154.017	18.4685	5.50449	-170.058	28.5795	35.3695	-172.409	51.1955	10.6225	
202	1.68333	-155.772	83.4714	19.2135	-132.291	88.4959	-1.76587	-117.399	93.6338	-22.4427	-102.316	93.7553	-40.8582	-141.085	51.8881	-46.4198	-128.897	48.8884	-73.0849	-115.384	40.5415	-90.6332	-128.319	30.0097	-44.0125	-105.174	26.1431	-66.8452	-80.7243	20.0248	-77.5445	-111.154	20.69	-30.7051	-86.3935	23.3147	-38.6649	-58.7295	34.7093	-39.8235	-99.3291	14.141	-8.85399	-80.1887	23.0352	-8.49582	-57.5122	40.4026	-6.21373	-151.679	19.4216	4.95784	-168.982	24.9533	32.3079	-169.084	47.5916	7.25391	
203	1.69167	-158.813	81.4173	15.2939	-136.554	92.8862	-3.94819	-121.922	97.121	-25.4801	-108.702	92.0286	-41.1439	-140.893	48.2433	-46.8146	-131.644	49.3497	-70.2258	-116.251	40.7615	-91.1127	-126.954	29.3863	-43.1192	-105.875	27.9777	-65.1877	-81.3608	27.802	-80.5905	-108.296	19.2517	-27.9288	-80.5205	28.7128	-39.4063	-53.7234	39.5701	-40.1216	-101.686	14.6695	-7.18797	-77.7608	29.4284	-9.31048	-60.7729	45.977	-7.39935	-148.735	14.9726	6.11626	-165.88	18.1943	35.5661	-170.73	47.4766	7.01728	
204	1.7	-161.286	74.969	16.422	-142.698	90.517	-3.63276	-128.701	94.2193	-21.6108	-112.683	93.1125	-44.6508	-142.41	48.7795	-51.5644	-128.879	43.6536	-71.6943	-115.544	40.1182	-94.1129	-125.208	25.9252	-43.2895	-106.809	25.7811	-62.8305	-79.9374	25.7117	-78.8579	-108.724	22.1378	-29.9918	-80.2711	30.7722	-40.0817	-58.0808	42.1032	-41.2642	-99.3078	15.3666	-7.6963	-77.7726	31.2506	-9.1891	-58.5278	49.6043	-6.66604	-149.768	15.5365	6.28226	-164.701	19.0034	33.5194	-172.087	41.1162	9.00441	
205	1.70833	-165.814	75.177	14.8329	-148.301	88.8128	-1.05218	-132.969	91.4331	-27.02	-120.864	94.5805	-45.3903	-144.52	44.8878	-46.4953	-133.42	45.5574	-73.2799	-118.628	39.0573	-92.6799	-127.298	27.0126	-44.9469	-105.543	24.7659	-63.3985	-79.7342	29.22	-81.7943	-104.149	20.0217	-30.9616	-79.7245	31.2048	-40.6711	-62.3862	48.297	-45.4297	-95.501	20.3489	-11.2998	-77.6912	35.7675	-9.7386	-63.311	55.7224	-11.5975	-148.561	11.6854	6.5952	-159.517	12.3867	36.9529	-170.814	35.5126	10.7155	
206	1.71667	-167.172	69.6494	15.1241	-151.651	84.7302	-2.52744	-138.689	88.6732	-26.0645	-126.435	92.5346	-49.7597	-144.473	39.8178	-46.6638	-134.422	42.4836	-74.5578	-121.378	39.4682	-94.4256	-126.36	26.3219	-45.9729	-104.47	25.3436	-63.8535	-83.5815	33.4099	-82.5728	-105.778	20.8859	-28.8514	-83.073	34.6768	-42.0646	-60.0975	54.4859	-44.7598	-97.2063	20.2893	-8.07807	-79.2361	41.3488	-11.7129	-66.1914	67.2477	-12.5371	-146.23	10.1821	7.30928	-158.303	9.79255	39.4604	-170.454	33.9407	8.97622	
207	1.725	-170.416	64.7809	18.6344	-156.733	82.3699	-1.81419	-146.305	87.4946	-28.2801	-136.22	92.0704	-47.8591	-147.128	38.524	-48.3642	-138.221	41.4972	-71.5142	-123.914	39.5806	-91.9393	-125.141	24.2165	-44.7541	-106.934	26.7474	-63.8587	-83.463	34.5422	-83.5362	-107.565	25.5794	-31.5102	-83.1777	35.8284	-39.831	-67.2359	58.3381	-46.1689	-92.0229	22.8958	-8.17941	-77.3036	43.9665	-10.9162	-68.9534	71.8424	-7.40246	-143.443	8.94333	10.3957	-155.515	7.36144	37.481	-170.598	28.6862	14.9884	
208	1.73333	-172.347	61.6232	21.7745	-159.56	75.9382	-1.46302	-152.63	86.0208	-27.5887	-140.261	89.0058	-49.8872	-146.347	35.0788	-46.2777	-140.516	40.0515	-72.4668	-125.647	38.8369	-91.519	-125.963	22.5746	-41.7962	-107.749	29.2873	-64.3713	-82.6612	38.3845	-84.5458	-104.444	22.86	-28.2483	-85.8993	43.6868	-42.8751	-67.8694	65.5303	-47.2264	-94.9772	26.2904	-11.0915	-80.7168	51.2493	-12.1331	-74.7481	73.0894	-8.88325	-140.398	7.34029	14.077	-150.945	5.66094	41.6942	-167.224	23.4794	16.5063	
209	1.74167	-172.71	57.8871	22.7566	-163.983	75.2148	2.41878	-155.09	82.5236	-27.8607	-145.789	86.1269	-46.3672	-148.835	34.2699	-42.3996	-138.227	37.4382	-68.938	-122.982	37.5759	-91.2578	-123.87	21.5036	-40.8466	-106.173	29.4929	-64.8456	-88.5684	43.6104	-85.3047	-106.845	25.6049	-28.6509	-88.3927	43.6846	-42.0045	-71.6638	70.612	-46.4037	-91.8093	27.5568	-8.63731	-79.7711	52.4903	-9.91191	-80.1342	81.7046	-5.23962	-136.881	4.3134	14.2021	-149.236	5.52942	37.9956	-166.981	19.2538	18.8726	
210	1.75	-173.256	53.9938	20.9328	-164.737	73.0237	2.65694	-157.262	80.0231	-23.4973	-149.331	86.4061	-46.7085	-150.305	33.9287	-46.1131	-139.954	38.2377	-71.2366	-123.405	38.5896	-88.6585	-123.808	23.3799	-42.7999	-109.845	32.3693	-61.8452	-85.0986	48.9988	-82.6743	-102.877	26.357	-27.5403	-89.7209	45.9232	-39.5293	-75.7177	73.347	-42.1394	-90.645	26.6154	-8.15013	-81.6301	54.927	-9.52787	-85.2096	82.3233	-4.01187	-138.001	3.03716	15.8799	-146.336	3.62046	45.5118	-165.575	18.9324	15.9828	
211	1.75833	-171.4	51.3416	24.5313	-164.011	69.4815	1.18079	-159.655	80.6507	-24.1408	-150.347	84.5983	-41.458	-149.655	32.374	-45.7778	-137.698	35.9562	-66.9841	-119.834	40.0037	-89.9844	-122.778	22.0423	-40.0913	-108.339	33.7586	-60.6003	-84.087	55.1336	-77.2663	-100.844	26.8072	-29.5163	-86.3339	49.5847	-39.1867	-77.357	79.5339	-35.4803	-90.6098	29.3386	-10.3297	-83.7936	53.3342	-8.94071	-87.8829	80.7167	-1.11992	-132.117	0.242917	14.6524	-142.532	0.896206	42.5653	-167.527	16.5094	16.7838	
212	1.76667	-175.18	51.2444	23.2318	-169.786	71.371	4.51967	-160.092	78.5753	-22.8493	-149.119	83.1382	-40.7364	-147.256	30.5258	-43.8886	-137.29	35.245	-66.7257	-119.934	43.0629	-87.6923	-126.251	24.0908	-39.4671	-103.105	36.187	-59.0238	-86.5246	63.6045	-69.8238	-103.326	25.3105	-27.6816	-87.5122	52.3869	-36.4637	-81.7186	77.8003	-29.0462	-93.1725	24.8786	-7.34869	-83.2972	53.2532	-8.82087	-88.0615	77.8264	6.19451	-130.369	-0.276394	17.3998	-142.352	-1.95096	45.8589	-160.241	14.2308	19.0795	
